<svg width="155" height="155" viewBox="0 0 155 155" fill="none" xmlns="http://www.w3.org/2000/svg">
<circle cx="77.5" cy="77.5" r="77.5" fill="#2C7BF0"/>
<g clip-path="url(#clip0)">
<path d="M117.427 103.759H64.9416C64.3406 96.4809 58.5203 90.6605 51.242 90.0594V37.5742C51.242 36.1553 50.0877 35.001 48.6687 35.001H37.5732C36.1543 35.001 35 36.1553 35 37.5742V50.2571C35 50.945 35.5575 51.5023 36.2451 51.5023C36.9328 51.5023 37.4902 50.945 37.4902 50.2571V37.5742C37.4902 37.5286 37.5274 37.4912 37.5732 37.4912H48.6687C48.7146 37.4912 48.7517 37.5286 48.7517 37.5742V40.5017H44.4961C43.8085 40.5017 43.251 41.0591 43.251 41.7469C43.251 42.4347 43.8085 42.992 44.4961 42.992H48.7516V46.0022H47.2893C46.6017 46.0022 46.0442 46.5595 46.0442 47.2473C46.0442 47.9351 46.6017 48.4924 47.2893 48.4924H48.7516V51.5026H44.4961C43.8085 51.5026 43.251 52.0599 43.251 52.7477C43.251 53.4355 43.8085 53.9928 44.4961 53.9928H48.7516V57.003H47.2893C46.6017 57.003 46.0442 57.5603 46.0442 58.2481C46.0442 58.9359 46.6017 59.4933 47.2893 59.4933H48.7516V62.5033H44.4961C43.8085 62.5033 43.251 63.0606 43.251 63.7484C43.251 64.4362 43.8085 64.9935 44.4961 64.9935H48.7516V68.0037H47.2893C46.6017 68.0037 46.0442 68.561 46.0442 69.2488C46.0442 69.9366 46.6017 70.494 47.2893 70.494H48.7516V73.5051H44.4961C43.8085 73.5051 43.251 74.0625 43.251 74.7503C43.251 75.4381 43.8085 75.9954 44.4961 75.9954H48.7516V79.0054H47.2893C46.6017 79.0054 46.0442 79.5627 46.0442 80.2505C46.0442 80.9383 46.6017 81.4956 47.2893 81.4956H48.7516V84.5067H44.4961C43.8085 84.5067 43.251 85.064 43.251 85.7518C43.251 86.4396 43.8085 86.9969 44.4961 86.9969H48.7516V90.0076H37.4902V55.2375C37.4902 54.5496 36.9328 53.9923 36.2451 53.9923C35.5575 53.9923 35 54.5496 35 55.2375V116.005C35 118.209 36.7925 120.001 38.9955 120.001H63.7484H117.427C118.846 120.001 120 118.847 120 117.428V106.332C120 104.913 118.846 103.759 117.427 103.759ZM37.4902 116.005V92.4975H49.9969C56.893 92.4975 62.5033 98.1078 62.5033 105.004V105.004V117.511H38.9955C38.1656 117.511 37.4902 116.835 37.4902 116.005ZM117.51 117.428C117.51 117.473 117.473 117.511 117.427 117.511H64.9935V106.249H68.0041V110.505C68.0041 111.193 68.5616 111.75 69.2492 111.75C69.9368 111.75 70.4943 111.193 70.4943 110.505V106.249H73.5045V107.712C73.5045 108.399 74.062 108.957 74.7496 108.957C75.4373 108.957 75.9947 108.399 75.9947 107.712V106.249H79.0048V110.505C79.0048 111.193 79.5622 111.75 80.2499 111.75C80.9375 111.75 81.495 111.193 81.495 110.505V106.249H84.5052V107.712C84.5052 108.399 85.0627 108.957 85.7503 108.957C86.438 108.957 86.9954 108.399 86.9954 107.712V106.249H90.0055V110.505C90.0055 111.193 90.5629 111.75 91.2506 111.75C91.9382 111.75 92.4957 111.193 92.4957 110.505V106.249H95.5059V107.712C95.5059 108.399 96.0634 108.957 96.751 108.957C97.4386 108.957 97.9961 108.399 97.9961 107.712V106.249H101.007V110.505C101.007 111.193 101.565 111.75 102.252 111.75C102.94 111.75 103.498 111.193 103.498 110.505V106.249H106.507V107.712C106.507 108.399 107.065 108.957 107.753 108.957C108.44 108.957 108.998 108.399 108.998 107.712V106.249H112.009V110.505C112.009 111.193 112.566 111.75 113.254 111.75C113.941 111.75 114.499 111.193 114.499 110.505V106.249H117.427C117.473 106.249 117.51 106.287 117.51 106.332V117.428Z" fill="white"/>
<path d="M49.9969 101.008C47.7937 101.008 46.0016 102.8 46.0016 105.003C46.0016 107.206 47.7939 108.998 49.9969 108.998C52.1999 108.998 53.9922 107.206 53.9922 105.003C53.9922 102.8 52.1999 101.008 49.9969 101.008ZM49.9969 106.508C49.167 106.508 48.4918 105.833 48.4918 105.003C48.4918 104.173 49.167 103.498 49.9969 103.498C50.8268 103.498 51.502 104.173 51.502 105.003C51.502 105.833 50.8268 106.508 49.9969 106.508Z" fill="white"/>
<path d="M49.9968 95.5071C44.7607 95.5071 40.5007 99.7669 40.5007 105.003C40.5007 110.239 44.7607 114.499 49.9968 114.499C55.233 114.499 59.4929 110.239 59.4929 105.003C59.4928 99.7669 55.233 95.5071 49.9968 95.5071ZM49.9968 112.009C46.1338 112.009 42.991 108.866 42.991 105.003C42.991 101.14 46.1338 97.9973 49.9968 97.9973C53.8598 97.9973 57.0027 101.14 57.0027 105.003C57.0025 108.866 53.8598 112.009 49.9968 112.009Z" fill="white"/>
<path d="M70.6708 58.8405C70.965 58.8405 71.2603 58.7369 71.4975 58.5259L75.0581 55.3612C75.5721 54.9043 75.6184 54.1174 75.1615 53.6034C74.7046 53.0894 73.9175 53.0428 73.4037 53.5L69.843 56.6649C69.329 57.1218 69.2829 57.9087 69.7398 58.4227C69.9856 58.6994 70.3273 58.8405 70.6708 58.8405Z" fill="white"/>
<path d="M78.4201 51.9523C78.7143 51.9523 79.0096 51.8487 79.2468 51.6379L82.8074 48.473C83.3213 48.0161 83.3675 47.2292 82.9106 46.7152C82.4538 46.2012 81.6667 46.1546 81.1529 46.6118L77.5923 49.7765C77.0783 50.2334 77.0322 51.0203 77.4889 51.5343C77.7349 51.8112 78.0766 51.9523 78.4201 51.9523Z" fill="white"/>
<path d="M63.7484 64.9935H66.6708C67.3584 64.9935 67.9159 64.4362 67.9159 63.7484C67.9159 63.1547 67.5004 62.658 66.9442 62.5335C67.2771 62.0708 67.2576 61.4235 66.8632 60.9799C66.4063 60.4659 65.6194 60.4191 65.1054 60.8765L62.9213 62.8179C62.535 63.1612 62.401 63.7077 62.5848 64.191C62.7682 64.6741 63.2314 64.9935 63.7484 64.9935Z" fill="white"/>
<path d="M79.9969 63.7485C79.9969 63.0607 79.4394 62.5034 78.7518 62.5034H73.3053C72.6177 62.5034 72.0602 63.0607 72.0602 63.7485C72.0602 64.4363 72.6177 64.9937 73.3053 64.9937H78.7518C79.4394 64.9937 79.9969 64.4363 79.9969 63.7485Z" fill="white"/>
<path d="M84.8916 95.2471H87.2563V98.2574H85.7511C85.0634 98.2574 84.5059 98.8147 84.5059 99.5025C84.5059 100.19 85.0634 100.748 85.7511 100.748H91.2517C91.9393 100.748 92.4968 100.19 92.4968 99.5025C92.4968 98.8147 91.9393 98.2574 91.2517 98.2574H89.7464V95.2471H95.6371C96.3248 95.2471 96.8822 94.6898 96.8822 94.002C96.8822 93.3141 96.3248 92.7568 95.6371 92.7568H89.7464V64.9935H106.508V92.7568H100.618C99.9301 92.7568 99.3726 93.3141 99.3726 94.002C99.3726 94.6898 99.9301 95.2471 100.618 95.2471H107.754C108.441 95.2471 108.999 94.6898 108.999 94.002V64.9935H113.254C113.771 64.9935 114.234 64.6741 114.418 64.1909C114.602 63.7078 114.468 63.1612 114.081 62.8177L89.7466 41.1866V37.4902H91.2517C91.9393 37.4902 92.4968 36.9329 92.4968 36.2451C92.4968 35.5573 91.9393 35 91.2517 35H85.7511C85.0634 35 84.5059 35.5573 84.5059 36.2451C84.5059 36.9329 85.0634 37.4902 85.7511 37.4902H87.2563V41.1864L85.4901 42.7564C84.9761 43.2133 84.9298 44.0002 85.3868 44.5142C85.6329 44.7911 85.9745 44.9321 86.3178 44.9321C86.612 44.9321 86.9074 44.8283 87.1446 44.6175L87.2563 44.518V62.503H85.5792C84.8916 62.503 84.3341 63.0603 84.3341 63.7481C84.3341 64.4359 84.8916 64.9932 85.5792 64.9932H87.2563V92.7568H84.8916C84.204 92.7568 83.6465 93.3141 83.6465 94.002C83.6465 94.6898 84.204 95.2471 84.8916 95.2471ZM109.979 62.5033H89.7466V44.5185L109.979 62.5033Z" fill="white"/>
<path d="M77.1694 95.2471H80.7062C81.3939 95.2471 81.9513 94.6898 81.9513 94.002C81.9513 93.3142 81.3939 92.7568 80.7062 92.7568H77.1694C76.4818 92.7568 75.9243 93.3142 75.9243 94.002C75.9243 94.6898 76.4816 95.2471 77.1694 95.2471Z" fill="white"/>
<path d="M69.249 95.2471H72.8589C73.5465 95.2471 74.104 94.6897 74.104 94.0019C74.104 93.3141 73.5465 92.7568 72.8589 92.7568H70.4941V90.3921C70.4941 89.7043 69.9367 89.147 69.249 89.147C68.5614 89.147 68.0039 89.7043 68.0039 90.3921V94.0019C68.0039 94.6897 68.5614 95.2471 69.249 95.2471Z" fill="white"/>
<path d="M69.249 85.0602C69.9367 85.0602 70.4941 84.5029 70.4941 83.8151V78.2571C70.4941 77.5693 69.9367 77.012 69.249 77.012C68.5614 77.012 68.0039 77.5693 68.0039 78.2571V83.8151C68.0039 84.5029 68.5614 85.0602 69.249 85.0602Z" fill="white"/>
<path d="M69.249 72.7287C69.9367 72.7287 70.4941 72.1714 70.4941 71.4836V67.8738C70.4941 67.186 69.9367 66.6287 69.249 66.6287C68.5614 66.6287 68.0039 67.186 68.0039 67.8738V71.4836C68.0039 72.1713 68.5614 72.7287 69.249 72.7287Z" fill="white"/>
</g>
<defs>
<clipPath id="clip0">
<rect width="85" height="85" fill="white" transform="translate(35 35)"/>
</clipPath>
</defs>
</svg>
