<svg width="155" height="155" viewBox="0 0 155 155" fill="none" xmlns="http://www.w3.org/2000/svg">
<circle cx="77.5" cy="77.5" r="77.5" fill="#2C7BF0"/>
<path d="M44.3125 110.703V44.2969C44.3125 43.2402 44.7323 42.2267 45.4795 41.4795C46.2267 40.7323 47.2402 40.3125 48.2969 40.3125H89.4688V46.9531C89.4688 48.0098 89.8885 49.0233 90.6357 49.7705C91.383 50.5177 92.3964 50.9375 93.4531 50.9375H100.094V77.5H102.75V49.6094C102.75 49.2572 102.61 48.9194 102.361 48.6704L91.7359 38.0454C91.4868 37.7963 91.1491 37.6563 90.7969 37.6562H48.2969C46.5363 37.6584 44.8485 38.3587 43.6036 39.6036C42.3587 40.8485 41.6584 42.5363 41.6562 44.2969V110.703C41.6584 112.464 42.3587 114.152 43.6036 115.396C44.8485 116.641 46.5363 117.342 48.2969 117.344H89.4688V114.688H48.2969C47.2402 114.688 46.2267 114.268 45.4795 113.521C44.7323 112.773 44.3125 111.76 44.3125 110.703ZM92.125 46.9531V42.1905L98.2158 48.2812H93.4531C93.1009 48.2812 92.7631 48.1413 92.514 47.8923C92.2649 47.6432 92.125 47.3054 92.125 46.9531Z" fill="#FCFCFC"/>
<path d="M82.8283 61.5626C82.8285 60.1519 82.5478 58.7554 82.0026 57.4544C81.4574 56.1534 80.6585 54.974 79.6527 53.985C78.6469 52.996 77.4542 52.2171 76.1442 51.6939C74.8341 51.1707 73.4331 50.9136 72.0227 50.9376C69.313 51.0123 66.7318 52.1084 64.7963 54.0062C62.8609 55.9039 61.7142 58.4632 61.5862 61.1708C61.5341 62.6441 61.7889 64.1121 62.3344 65.4816C62.88 66.8512 63.7043 68.0923 64.7552 69.1262C65.9615 70.2865 66.7026 71.8475 66.839 73.5157H64.2345V76.1719H66.8908V78.8282C66.8908 79.5327 67.1706 80.2083 67.6688 80.7065C68.1669 81.2046 68.8425 81.4844 69.547 81.4844H74.8595C75.564 81.4844 76.2396 81.2046 76.7378 80.7065C77.2359 80.2083 77.5158 79.5327 77.5158 78.8282V76.1719H80.172V73.5157H77.5649C77.6771 71.8886 78.3866 70.3603 79.5571 69.2245C80.5957 68.2377 81.4216 67.049 81.9841 65.7314C82.5466 64.4139 82.8339 62.9952 82.8283 61.5626ZM69.547 78.8282V76.1719H74.8595V78.8282H69.547ZM74.8728 73.5157H69.5337C69.384 71.1285 68.3408 68.8852 66.6119 67.2323C65.8184 66.4612 65.1966 65.5314 64.7869 64.5036C64.3773 63.4758 64.189 62.3732 64.2345 61.2677C64.2924 59.7243 64.7975 58.2309 65.6885 56.9693C66.5795 55.7076 67.818 54.7321 69.2532 54.1614C70.6884 53.5907 72.2586 53.4494 73.7726 53.7546C75.2867 54.0599 76.6794 54.7986 77.7814 55.8809C78.5414 56.6274 79.1436 57.5191 79.5524 58.5028C79.9613 59.4866 80.1683 60.5425 80.1612 61.6078C80.1541 62.6731 79.9332 63.7262 79.5113 64.7044C79.0895 65.6827 78.4755 66.5663 77.7057 67.3027C76.0085 68.9401 74.996 71.1606 74.8728 73.5157Z" fill="#FCFCFC"/>
<path d="M72.2031 62.8906C71.8509 62.8906 71.5131 62.7507 71.264 62.5016C71.0149 62.2526 70.875 61.9147 70.875 61.5625H68.2188C68.2222 62.3836 68.4792 63.1836 68.9546 63.8531C69.4301 64.5226 70.1008 65.0288 70.875 65.3025V70.8594H73.5312V65.3025C74.3054 65.0288 74.9761 64.5226 75.4516 63.8531C75.9271 63.1836 76.1841 62.3836 76.1875 61.5625H73.5312C73.5312 61.9147 73.3913 62.2526 73.1423 62.5016C72.8932 62.7507 72.5554 62.8906 72.2031 62.8906Z" fill="#FCFCFC"/>
<path d="M70.875 45.625H73.5312V48.2812H70.875V45.625Z" fill="#FCFCFC"/>
<path d="M63.0842 48.4214L65.3845 47.0933L66.7127 49.3936L64.4124 50.7217L63.0842 48.4214Z" fill="#FCFCFC"/>
<path d="M57.7363 54.7471L59.0645 52.4468L61.3648 53.7749L60.0366 56.0752L57.7363 54.7471Z" fill="#FCFCFC"/>
<path d="M56.2656 60.2344H58.9219V62.8906H56.2656V60.2344Z" fill="#FCFCFC"/>
<path d="M57.7368 68.3777L60.0371 67.0496L61.3652 69.3499L59.0649 70.678L57.7368 68.3777Z" fill="#FCFCFC"/>
<path d="M83.042 69.3591L84.3701 67.0588L86.6704 68.3869L85.3423 70.6873L83.042 69.3591Z" fill="#FCFCFC"/>
<path d="M85.4844 60.2344H88.1406V62.8906H85.4844V60.2344Z" fill="#FCFCFC"/>
<path d="M83.0388 53.7664L85.3391 52.4382L86.6673 54.7385L84.3669 56.0667L83.0388 53.7664Z" fill="#FCFCFC"/>
<path d="M77.6956 49.4009L79.0237 47.1006L81.324 48.4287L79.9959 50.729L77.6956 49.4009Z" fill="#FCFCFC"/>
<path d="M120.204 94.7789L116.642 94.2702C116.401 93.5213 116.1 92.7932 115.74 92.0934L117.899 89.2167C118.09 88.961 118.183 88.6446 118.161 88.3257C118.138 88.0069 118.001 87.7069 117.775 87.4809L114.019 83.7249C113.793 83.4992 113.493 83.3625 113.175 83.3398C112.856 83.3171 112.54 83.41 112.285 83.6014L109.407 85.7583C108.707 85.3995 107.979 85.0983 107.23 84.8578L106.721 81.2958C106.676 80.9794 106.518 80.69 106.276 80.4807C106.035 80.2714 105.726 80.1562 105.406 80.1563H100.094C99.7742 80.1562 99.4653 80.2714 99.2237 80.4807C98.9822 80.69 98.8243 80.9794 98.7789 81.2958L98.2702 84.8578C97.5213 85.0981 96.7933 85.3992 96.0934 85.7583L93.2154 83.6014C92.9597 83.41 92.6437 83.3171 92.3251 83.3398C92.0065 83.3625 91.7068 83.4992 91.4809 83.7249L87.7249 87.4809C87.4989 87.7069 87.3619 88.0069 87.3393 88.3257C87.3166 88.6446 87.4096 88.961 87.6014 89.2167L89.7596 92.0934C89.4001 92.7932 89.0985 93.5213 88.8578 94.2702L85.2958 94.7789C84.9794 94.8243 84.69 94.9822 84.4807 95.2237C84.2714 95.4653 84.1562 95.7742 84.1563 96.0938V101.406C84.1562 101.726 84.2714 102.035 84.4807 102.276C84.69 102.518 84.9794 102.676 85.2958 102.721L88.8578 103.23C89.0985 103.979 89.4001 104.707 89.7596 105.407L87.6014 108.283C87.4096 108.539 87.3166 108.855 87.3393 109.174C87.3619 109.493 87.4989 109.793 87.7249 110.019L91.4809 113.775C91.7068 114.001 92.0065 114.137 92.3251 114.16C92.6437 114.183 92.9597 114.09 93.2154 113.899L96.0934 111.742C96.7933 112.101 97.5213 112.402 98.2702 112.642L98.7789 116.204C98.8243 116.521 98.9822 116.81 99.2237 117.019C99.4653 117.229 99.7742 117.344 100.094 117.344H105.406C105.726 117.344 106.035 117.229 106.276 117.019C106.518 116.81 106.676 116.521 106.721 116.204L107.23 112.642C107.979 112.402 108.707 112.101 109.407 111.742L112.285 113.899C112.54 114.09 112.856 114.183 113.175 114.16C113.493 114.137 113.793 114.001 114.019 113.775L117.775 110.019C118.001 109.793 118.138 109.493 118.161 109.174C118.183 108.855 118.09 108.539 117.899 108.283L115.74 105.407C116.1 104.707 116.401 103.979 116.642 103.23L120.204 102.721C120.521 102.676 120.81 102.518 121.019 102.276C121.229 102.035 121.344 101.726 121.344 101.406V96.0938C121.344 95.7742 121.229 95.4653 121.019 95.2237C120.81 94.9822 120.521 94.8243 120.204 94.7789ZM118.688 100.255L115.416 100.722C115.156 100.76 114.913 100.873 114.718 101.048C114.522 101.224 114.383 101.453 114.318 101.708C114.038 102.808 113.601 103.862 113.02 104.838C112.886 105.064 112.822 105.326 112.837 105.588C112.851 105.851 112.943 106.103 113.101 106.314L115.083 108.957L112.958 111.082L110.314 109.1C110.103 108.942 109.851 108.851 109.589 108.837C109.326 108.822 109.065 108.886 108.839 109.02C107.864 109.601 106.81 110.037 105.71 110.315C105.455 110.38 105.225 110.519 105.049 110.715C104.873 110.911 104.759 111.154 104.722 111.415L104.255 114.688H101.245L100.779 111.416C100.742 111.156 100.628 110.912 100.452 110.716C100.276 110.52 100.046 110.381 99.7909 110.317C98.6909 110.038 97.637 109.602 96.6619 109.022C96.4358 108.888 96.1751 108.824 95.9127 108.838C95.6502 108.852 95.3979 108.944 95.1877 109.101L92.5434 111.083L90.4184 108.958L92.3999 106.315C92.5581 106.105 92.6502 105.852 92.6646 105.59C92.679 105.327 92.6151 105.066 92.4809 104.839C91.9007 103.864 91.4637 102.809 91.1834 101.709C91.1182 101.455 90.9791 101.225 90.7836 101.05C90.5881 100.874 90.345 100.761 90.085 100.724L86.8125 100.255V97.2452L90.0837 96.7777C90.3437 96.7405 90.5868 96.627 90.7823 96.4516C90.9778 96.2762 91.1169 96.0467 91.182 95.7923C91.4624 94.692 91.8994 93.6378 92.4796 92.6619C92.6138 92.4356 92.6777 92.1745 92.6633 91.9118C92.6489 91.6491 92.5567 91.3966 92.3986 91.1863L90.417 88.5434L92.542 86.4184L95.1863 88.3999C95.3966 88.5576 95.6489 88.6493 95.9113 88.6635C96.1738 88.6777 96.4345 88.6137 96.6605 88.4796C97.6357 87.8993 98.6896 87.4632 99.7896 87.1847C100.045 87.1199 100.275 86.9808 100.451 86.785C100.627 86.5892 100.741 86.3456 100.778 86.085L101.245 82.8125H104.255L104.721 86.0837C104.758 86.3443 104.872 86.5879 105.048 86.7837C105.224 86.9795 105.454 87.1186 105.709 87.1834C106.809 87.4619 107.863 87.898 108.838 88.4783C109.064 88.6123 109.325 88.6763 109.587 88.6622C109.85 88.648 110.102 88.5562 110.312 88.3986L112.957 86.417L115.082 88.542L113.1 91.185C112.942 91.3953 112.85 91.6478 112.835 91.9105C112.821 92.1732 112.885 92.4342 113.019 92.6605C113.599 93.6365 114.036 94.6907 114.317 95.7909C114.382 96.0454 114.521 96.2748 114.716 96.4503C114.912 96.6257 115.155 96.7392 115.415 96.7764L118.688 97.2452V100.255Z" fill="#FCFCFC"/>
<path d="M102.75 90.7812C101.174 90.7812 99.6333 91.2486 98.3228 92.1242C97.0124 92.9998 95.991 94.2444 95.3878 95.7005C94.7847 97.1566 94.6269 98.7588 94.9344 100.305C95.2418 101.85 96.0008 103.27 97.1152 104.385C98.2297 105.499 99.6496 106.258 101.195 106.566C102.741 106.873 104.343 106.715 105.8 106.112C107.256 105.509 108.5 104.488 109.376 103.177C110.251 101.867 110.719 100.326 110.719 98.75C110.717 96.6372 109.876 94.6115 108.382 93.1176C106.888 91.6236 104.863 90.7834 102.75 90.7812ZM102.75 104.062C101.699 104.062 100.672 103.751 99.7985 103.167C98.9249 102.583 98.244 101.754 97.8419 100.783C97.4398 99.8123 97.3346 98.7441 97.5396 97.7136C97.7446 96.6831 98.2505 95.7365 98.9935 94.9935C99.7365 94.2505 100.683 93.7446 101.714 93.5396C102.744 93.3346 103.812 93.4398 104.783 93.8419C105.754 94.244 106.583 94.9249 107.167 95.7985C107.751 96.6722 108.062 97.6993 108.062 98.75C108.062 100.159 107.503 101.51 106.507 102.507C105.51 103.503 104.159 104.062 102.75 104.062Z" fill="#FCFCFC"/>
<path d="M101.422 85.4688H104.078V88.125H101.422V85.4688Z" fill="#FCFCFC"/>
<path d="M92.4082 90.2844L94.2865 88.4062L96.1647 90.2844L94.2865 92.1627L92.4082 90.2844Z" fill="#FCFCFC"/>
<path d="M89.4688 97.4219H92.125V100.078H89.4688V97.4219Z" fill="#FCFCFC"/>
<path d="M92.4065 107.2L94.2847 105.322L96.163 107.2L94.2847 109.079L92.4065 107.2Z" fill="#FCFCFC"/>
<path d="M101.422 109.375H104.078V112.031H101.422V109.375Z" fill="#FCFCFC"/>
<path d="M109.309 107.185L111.188 105.307L113.066 107.185L111.188 109.063L109.309 107.185Z" fill="#FCFCFC"/>
<path d="M113.375 97.4219H116.031V100.078H113.375V97.4219Z" fill="#FCFCFC"/>
<path d="M109.312 90.3157L111.191 88.4374L113.069 90.3157L111.191 92.1939L109.312 90.3157Z" fill="#FCFCFC"/>
<path d="M49.625 86.7969H73.5312V89.4531H49.625V86.7969Z" fill="#FCFCFC"/>
<path d="M76.1875 86.7969H81.5V89.4531H76.1875V86.7969Z" fill="#FCFCFC"/>
<path d="M49.625 92.1094H81.5V94.7656H49.625V92.1094Z" fill="#FCFCFC"/>
<path d="M49.625 97.4219H52.2812V100.078H49.625V97.4219Z" fill="#FCFCFC"/>
<path d="M54.9375 97.4219H81.5V100.078H54.9375V97.4219Z" fill="#FCFCFC"/>
<path d="M49.625 102.734H81.5V105.391H49.625V102.734Z" fill="#FCFCFC"/>
</svg>
