<svg width="155" height="155" viewBox="0 0 155 155" fill="none" xmlns="http://www.w3.org/2000/svg">
<circle cx="77.5" cy="77.5" r="77.5" fill="#2C7BF0"/>
<path d="M76.1719 109.375H78.8281V112.031H76.1719V109.375Z" fill="white"/>
<path d="M99.0869 100.979L100.965 99.1003L102.843 100.979L100.965 102.857L99.0869 100.979Z" fill="white"/>
<path d="M109.375 76.1719H112.031V78.8281H109.375V76.1719Z" fill="white"/>
<path d="M116.016 68.2031H106.599C106.085 66.5827 105.434 65.0089 104.654 63.4989L111.309 56.8423C111.558 56.5933 111.698 56.2555 111.698 55.9034C111.698 55.5512 111.558 55.2134 111.309 54.9644L105.674 49.3305C101.987 45.5729 97.592 42.5831 92.7431 40.5339C87.8942 38.4847 82.6873 37.4167 77.4232 37.3916C72.1591 37.3664 66.9422 38.3847 62.074 40.3875C57.2057 42.3903 52.7826 45.3379 49.0601 49.0601C45.3377 52.7823 42.3897 57.2052 40.3866 62.0733C38.3834 66.9414 37.3648 72.1582 37.3896 77.4223C37.4144 82.6864 38.482 87.8934 40.5309 92.7425C42.5797 97.5915 45.5692 101.987 49.3265 105.674L54.9604 111.309C55.2095 111.558 55.5472 111.698 55.8994 111.698C56.2516 111.698 56.5893 111.558 56.8384 111.309L63.4949 104.654C65.0063 105.434 66.5814 106.085 68.2031 106.598V116.016C68.2031 116.368 68.3431 116.706 68.5921 116.955C68.8412 117.204 69.179 117.344 69.5313 117.344H85.4688C85.821 117.344 86.1588 117.204 86.4079 116.955C86.657 116.706 86.7969 116.368 86.7969 116.016V106.599C88.4173 106.086 89.991 105.435 91.5011 104.655L98.1577 111.31C98.4067 111.559 98.7445 111.699 99.0967 111.699C99.4488 111.699 99.7866 111.559 100.036 111.31L111.305 100.041C111.554 99.7919 111.694 99.4541 111.694 99.102C111.694 98.7498 111.554 98.412 111.305 98.163L104.65 91.5064C105.432 89.9948 106.083 88.4192 106.598 86.7969H116.016C116.368 86.7969 116.706 86.6569 116.955 86.4079C117.204 86.1588 117.344 85.821 117.344 85.4687V69.5312C117.344 69.179 117.204 68.8412 116.955 68.5921C116.706 68.343 116.368 68.2031 116.016 68.2031ZM51.2031 51.2031C58.0133 44.3908 67.2018 40.4881 76.8328 40.3171C86.4638 40.1462 95.7851 43.7204 102.833 50.2867L100.957 52.162C94.4032 46.1135 85.763 42.8353 76.8462 43.0141C67.9294 43.1929 59.4276 46.8148 53.1212 53.1212C46.8148 59.4276 43.1929 67.9294 43.0142 76.8462C42.8354 85.763 46.1135 94.4032 52.162 100.957L50.2867 102.833C43.7204 95.7851 40.1462 86.4638 40.3171 76.8328C40.4881 67.2018 44.3909 58.0132 51.2031 51.2031ZM88.7692 66.2309C91.7178 69.2279 93.3627 73.2687 93.3456 77.4731C93.3285 81.6775 91.6507 85.7048 88.6778 88.6777C85.7048 91.6507 81.6775 93.3285 77.4731 93.3456C73.2688 93.3627 69.2279 91.7178 66.2309 88.7691C65.9818 88.5202 65.6441 88.3803 65.2919 88.3803C64.9397 88.3803 64.602 88.5202 64.3529 88.7691L54.0413 99.0807C48.4711 93.0287 45.456 85.0577 45.6264 76.8343C45.7968 68.6109 49.1394 60.7716 54.9555 54.9555C60.7716 49.1394 68.6109 45.7968 76.8343 45.6264C85.0578 45.456 93.0287 48.4711 99.0807 54.0413L88.7692 64.3516C88.6457 64.4749 88.5477 64.6214 88.4809 64.7826C88.414 64.9438 88.3796 65.1167 88.3796 65.2912C88.3796 65.4657 88.414 65.6386 88.4809 65.7998C88.5477 65.961 88.6457 66.1075 88.7692 66.2309ZM114.688 84.1406H105.608C105.318 84.1405 105.036 84.2354 104.804 84.411C104.573 84.5866 104.406 84.8331 104.328 85.1128C103.745 87.1962 102.915 89.2025 101.856 91.0894C101.714 91.3426 101.658 91.6356 101.698 91.9234C101.738 92.2113 101.871 92.4782 102.077 92.6831L108.49 99.098L99.1006 108.488L92.6858 102.074C92.4809 101.868 92.214 101.735 91.9261 101.695C91.6382 101.655 91.3452 101.711 91.092 101.854C89.2052 102.912 87.1988 103.742 85.1155 104.325C84.8358 104.403 84.5893 104.571 84.4137 104.802C84.2381 105.033 84.1431 105.315 84.1433 105.606V114.688H70.8594V105.608C70.8596 105.318 70.7646 105.036 70.589 104.804C70.4134 104.573 70.1669 104.406 69.8872 104.328C67.8038 103.745 65.7975 102.915 63.9106 101.856C63.6575 101.714 63.3645 101.658 63.0766 101.698C62.7887 101.738 62.5218 101.871 62.3169 102.077L55.902 108.49L52.1461 104.735L65.3277 91.5542C68.8815 94.6309 73.4686 96.2474 78.1661 96.0784C82.8636 95.9095 87.3228 93.9677 90.6464 90.6438C93.97 87.3199 95.9113 82.8605 96.0798 78.163C96.2482 73.4655 94.6312 68.8785 91.5542 65.3251L104.735 52.1434L108.49 55.8994L102.077 62.3142C101.871 62.5192 101.738 62.786 101.698 63.0739C101.658 63.3618 101.714 63.6548 101.856 63.908C102.915 65.7947 103.745 67.8011 104.328 69.8845C104.406 70.1642 104.573 70.4108 104.804 70.5863C105.036 70.7619 105.318 70.8569 105.608 70.8567H114.688V84.1406Z" fill="white"/>
<path d="M78.8281 72.3761V57.5781C78.8281 57.2259 78.6882 56.8881 78.4391 56.639C78.1901 56.3899 77.8522 56.25 77.5 56.25C77.1478 56.25 76.8099 56.3899 76.5609 56.639C76.3118 56.8881 76.1719 57.2259 76.1719 57.5781V72.3761C75.2591 72.6148 74.4264 73.0922 73.7593 73.7593C73.0922 74.4264 72.6148 75.2591 72.3761 76.1719H62.8906C62.5384 76.1719 62.2006 76.3118 61.9515 76.5609C61.7024 76.8099 61.5625 77.1478 61.5625 77.5C61.5625 77.8522 61.7024 78.1901 61.9515 78.4391C62.2006 78.6882 62.5384 78.8281 62.8906 78.8281H72.3761C72.6083 79.7344 73.0763 80.5631 73.7324 81.2301C74.3885 81.8971 75.2094 82.3786 76.1118 82.6257C77.0142 82.8727 77.9659 82.8767 78.8702 82.637C79.7746 82.3973 80.5995 81.9226 81.261 81.261C81.9226 80.5995 82.3973 79.7746 82.637 78.8702C82.8767 77.9659 82.8727 77.0142 82.6257 76.1118C82.3786 75.2094 81.8971 74.3885 81.2301 73.7324C80.5631 73.0763 79.7344 72.6083 78.8281 72.3761ZM77.5 80.1563C76.9746 80.1563 76.4611 80.0005 76.0243 79.7086C75.5874 79.4167 75.247 79.0019 75.0459 78.5165C74.8449 78.0311 74.7923 77.4971 74.8948 76.9818C74.9973 76.4665 75.2503 75.9932 75.6217 75.6217C75.9932 75.2503 76.4665 74.9973 76.9818 74.8948C77.4971 74.7923 78.0311 74.8449 78.5165 75.0459C79.0019 75.247 79.4167 75.5875 79.7086 76.0243C80.0005 76.4611 80.1563 76.9746 80.1563 77.5C80.1563 78.2045 79.8764 78.8801 79.3783 79.3783C78.8801 79.8764 78.2045 80.1563 77.5 80.1563Z" fill="white"/>
<path d="M77.5 52.2656C77.1478 52.2656 76.8099 52.1257 76.5609 51.8766C76.3118 51.6276 76.1719 51.2897 76.1719 50.9375V48.2812C76.1719 47.929 76.3118 47.5912 76.5609 47.3421C76.8099 47.0931 77.1478 46.9531 77.5 46.9531C77.8522 46.9531 78.1901 47.0931 78.4391 47.3421C78.6882 47.5912 78.8281 47.929 78.8281 48.2812V50.9375C78.8281 51.2897 78.6882 51.6276 78.4391 51.8766C78.1901 52.1257 77.8522 52.2656 77.5 52.2656Z" fill="white"/>
<path d="M90.7812 55.825C90.5482 55.8248 90.3194 55.7632 90.1176 55.6466C89.9159 55.5299 89.7485 55.3622 89.6321 55.1604C89.5157 54.9585 89.4544 54.7296 89.4545 54.4966C89.4545 54.2635 89.5159 54.0346 89.6324 53.8328L90.9605 51.5312C91.1379 51.2286 91.4277 51.0085 91.7668 50.9189C92.1059 50.8292 92.4666 50.8773 92.7704 51.0527C93.0741 51.2281 93.2961 51.5164 93.388 51.8549C93.4799 52.1934 93.4342 52.5544 93.2609 52.8593L91.9327 55.161C91.816 55.3631 91.6482 55.5308 91.446 55.6474C91.2439 55.764 91.0146 55.8253 90.7812 55.825Z" fill="white"/>
<path d="M64.2187 55.825C63.9854 55.8253 63.7561 55.764 63.5539 55.6474C63.3518 55.5308 63.1839 55.3631 63.0672 55.161L61.7391 52.8593C61.5658 52.5544 61.5201 52.1934 61.612 51.8549C61.7038 51.5164 61.9259 51.2281 62.2296 51.0527C62.5333 50.8773 62.8941 50.8292 63.2332 50.9189C63.5722 51.0085 63.8621 51.2286 64.0394 51.5312L65.3676 53.8328C65.4841 54.0346 65.5454 54.2635 65.5455 54.4966C65.5456 54.7296 65.4843 54.9585 65.3679 55.1604C65.2515 55.3622 65.084 55.5299 64.8823 55.6466C64.6806 55.7632 64.4517 55.8248 64.2187 55.825Z" fill="white"/>
<path d="M54.4956 65.5469C54.2623 65.5474 54.0332 65.4859 53.8315 65.3689L51.5298 64.0408C51.2273 63.8634 51.0072 63.5736 50.9175 63.2345C50.8279 62.8954 50.876 62.5347 51.0514 62.2309C51.2267 61.9272 51.5151 61.7052 51.8536 61.6133C52.192 61.5214 52.5531 61.5671 52.858 61.7405L55.1596 63.0686C55.4128 63.2148 55.6107 63.4404 55.7225 63.7105C55.8344 63.9806 55.854 64.2801 55.7784 64.5625C55.7027 64.8449 55.536 65.0944 55.304 65.2724C55.0721 65.4504 54.7879 65.5469 54.4956 65.5469Z" fill="white"/>
<path d="M50.9375 78.8281H48.2812C47.929 78.8281 47.5912 78.6882 47.3421 78.4391C47.0931 78.1901 46.9531 77.8522 46.9531 77.5C46.9531 77.1478 47.0931 76.8099 47.3421 76.5609C47.5912 76.3118 47.929 76.1719 48.2812 76.1719H50.9375C51.2897 76.1719 51.6276 76.3118 51.8766 76.5609C52.1257 76.8099 52.2656 77.1478 52.2656 77.5C52.2656 77.8522 52.1257 78.1901 51.8766 78.4391C51.6276 78.6882 51.2897 78.8281 50.9375 78.8281Z" fill="white"/>
<path d="M52.1966 93.4375C51.9042 93.4375 51.6201 93.341 51.3881 93.163C51.1562 92.9851 50.9895 92.7355 50.9138 92.4531C50.8381 92.1707 50.8577 91.8713 50.9696 91.6012C51.0815 91.3311 51.2794 91.1054 51.5325 90.9592L53.8342 89.6311C53.9853 89.5425 54.1524 89.4847 54.3259 89.461C54.4995 89.4372 54.676 89.4481 54.8453 89.4928C55.0147 89.5376 55.1735 89.6154 55.3126 89.7218C55.4518 89.8282 55.5685 89.9611 55.6561 90.1128C55.7436 90.2645 55.8003 90.432 55.8229 90.6057C55.8455 90.7794 55.8335 90.9558 55.7876 91.1248C55.7417 91.2939 55.6628 91.4522 55.5555 91.5906C55.4482 91.729 55.3146 91.8449 55.1623 91.9314L52.8607 93.2595C52.659 93.3766 52.4298 93.438 52.1966 93.4375Z" fill="white"/>
<path d="M77.5 90.7812C75.7551 90.7861 74.0267 90.4441 72.4152 89.7751C70.8037 89.1062 69.3412 88.1236 68.1128 86.8845C67.9861 86.7618 67.8852 86.6151 67.8158 86.453C67.7464 86.2909 67.7101 86.1165 67.7088 85.9402C67.7075 85.7638 67.7414 85.589 67.8084 85.4259C67.8754 85.2628 67.9742 85.1146 68.0991 84.9901C68.2239 84.8656 68.3724 84.7672 68.5357 84.7006C68.699 84.6341 68.8739 84.6007 69.0502 84.6025C69.2266 84.6043 69.4008 84.6412 69.5627 84.711C69.7247 84.7808 69.8711 84.8822 69.9934 85.0092C70.9755 86.0124 72.1468 86.8109 73.4396 87.3585C74.7323 87.906 76.1208 88.1918 77.5247 88.1992C78.9285 88.2067 80.32 87.9357 81.6184 87.4019C82.9169 86.8681 84.0966 86.0821 85.0893 85.0894C86.0821 84.0966 86.8681 82.9169 87.4019 81.6185C87.9357 80.32 88.2067 78.9286 88.1992 77.5247C88.1918 76.1208 87.906 74.7323 87.3584 73.4396C86.8109 72.1468 86.0124 70.9755 85.0092 69.9934C84.8822 69.8711 84.7808 69.7247 84.711 69.5627C84.6412 69.4008 84.6043 69.2266 84.6025 69.0502C84.6007 68.8739 84.6341 68.699 84.7006 68.5357C84.7672 68.3724 84.8656 68.2239 84.9901 68.0991C85.1146 67.9742 85.2628 67.8754 85.4259 67.8084C85.589 67.7414 85.7638 67.7075 85.9402 67.7088C86.1165 67.7101 86.2908 67.7464 86.453 67.8158C86.6151 67.8852 86.7618 67.9861 86.8845 68.1128C88.7401 69.97 90.0037 72.3355 90.5155 74.9105C91.0274 77.4855 90.7646 80.1545 89.7604 82.5802C88.7562 85.0059 87.0556 87.0796 84.8734 88.5392C82.6912 89.9989 80.1253 90.7791 77.5 90.7812Z" fill="white"/>
</svg>
