<svg width="155" height="155" viewBox="0 0 155 155" fill="none" xmlns="http://www.w3.org/2000/svg">
<circle cx="77.5" cy="77.5" r="77.5" fill="#2C7BF0"/>
<path d="M64.2188 59.2383C65.1351 59.2383 65.8789 58.4945 65.8789 57.5781C65.8789 56.6618 65.1351 55.918 64.2188 55.918C63.3024 55.918 62.5586 56.6618 62.5586 57.5781C62.5586 58.4945 63.3024 59.2383 64.2188 59.2383Z" fill="white"/>
<path d="M64.2188 69.1992C65.1351 69.1992 65.8789 68.4554 65.8789 67.5391C65.8789 66.6227 65.1351 65.8789 64.2188 65.8789C63.3024 65.8789 62.5586 66.6227 62.5586 67.5391C62.5586 68.4554 63.3024 69.1992 64.2188 69.1992Z" fill="white"/>
<path d="M60.8984 120H100.742C107.15 120 112.363 114.787 112.363 108.379C112.363 107.462 111.62 106.719 110.703 106.719H105.723V43.3008C105.723 38.7237 101.999 35 97.4219 35C97.4219 35 49.6522 35 49.2773 35C45.6159 35 42.6367 37.9792 42.6367 41.6406V49.9414C42.6367 50.8584 43.3799 51.6016 44.2969 51.6016H52.5977V111.344C52.5977 115.855 56.0321 120 60.8984 120ZM100.742 116.68H67.5352C68.5793 115.291 69.1992 113.549 69.1992 111.682V110.022H108.876C108.105 113.807 104.751 116.68 100.742 116.68ZM102.402 43.3008V106.719H67.5391C66.6221 106.719 65.8789 107.462 65.8789 108.379V111.699C65.8789 114.446 63.6448 116.68 60.8984 116.68C57.9218 116.68 55.918 114.104 55.918 111.344V41.6406C55.918 40.4435 55.5989 39.306 55.0302 38.3203H97.4219C100.168 38.3203 102.402 40.5544 102.402 43.3008ZM45.957 48.2812V41.6406C45.957 39.8099 47.4466 38.3203 49.2773 38.3203C51.0925 38.3203 52.5977 39.784 52.5977 41.6406V48.2812H45.957Z" fill="white"/>
<path d="M79.1602 82.4805C79.1602 85.3546 80.3625 88.0122 82.4805 89.8993V100.742C82.4805 101.354 82.8177 101.917 83.3572 102.206C83.8968 102.495 84.5524 102.463 85.0615 102.123L89.1211 99.4173L93.1807 102.123C93.6911 102.464 94.346 102.494 94.8849 102.206C95.4245 101.917 95.7617 101.354 95.7617 100.742V89.8993C97.8804 88.0115 99.082 85.354 99.082 82.4805C99.082 76.9883 94.6139 72.5195 89.1211 72.5195C83.6283 72.5195 79.1602 76.9877 79.1602 82.4805ZM90.042 96.0406C89.4843 95.669 88.7579 95.669 88.2002 96.0406L85.8008 97.6404V91.8746C86.8559 92.2475 87.9733 92.4414 89.1211 92.4414C90.2689 92.4414 91.3863 92.2475 92.4414 91.8746V97.6404L90.042 96.0406ZM95.7617 82.4805C95.7617 86.2281 92.7099 89.1211 89.1211 89.1211C85.531 89.1211 82.4805 86.2301 82.4805 82.4805C82.4805 78.819 85.4597 75.8398 89.1211 75.8398C92.7825 75.8398 95.7617 78.819 95.7617 82.4805Z" fill="white"/>
<path d="M64.2188 49.2773H94.1016C95.0185 49.2773 95.7617 48.5342 95.7617 47.6172C95.7617 46.7002 95.0185 45.957 94.1016 45.957H64.2188C63.3018 45.957 62.5586 46.7002 62.5586 47.6172C62.5586 48.5342 63.3018 49.2773 64.2188 49.2773Z" fill="white"/>
<path d="M70.8594 59.2383H94.1016C95.0185 59.2383 95.7617 58.4951 95.7617 57.5781C95.7617 56.6611 95.0185 55.918 94.1016 55.918H70.8594C69.9424 55.918 69.1992 56.6611 69.1992 57.5781C69.1992 58.4951 69.9424 59.2383 70.8594 59.2383Z" fill="white"/>
<path d="M70.8594 69.1992H94.1016C95.0185 69.1992 95.7617 68.456 95.7617 67.5391C95.7617 66.6221 95.0185 65.8789 94.1016 65.8789H70.8594C69.9424 65.8789 69.1992 66.6221 69.1992 67.5391C69.1992 68.456 69.9424 69.1992 70.8594 69.1992Z" fill="white"/>
<path d="M64.2188 89.1211H74.1797C75.0967 89.1211 75.8398 88.3779 75.8398 87.4609C75.8398 86.544 75.0967 85.8008 74.1797 85.8008H64.2188C63.3018 85.8008 62.5586 86.544 62.5586 87.4609C62.5586 88.3779 63.3018 89.1211 64.2188 89.1211Z" fill="white"/>
<path d="M64.2188 79.1602H74.1797C75.0967 79.1602 75.8398 78.417 75.8398 77.5C75.8398 76.583 75.0967 75.8398 74.1797 75.8398H64.2188C63.3018 75.8398 62.5586 76.583 62.5586 77.5C62.5586 78.417 63.3018 79.1602 64.2188 79.1602Z" fill="white"/>
<path d="M64.2188 99.082H74.1797C75.0967 99.082 75.8398 98.3389 75.8398 97.4219C75.8398 96.5049 75.0967 95.7617 74.1797 95.7617H64.2188C63.3018 95.7617 62.5586 96.5049 62.5586 97.4219C62.5586 98.3389 63.3018 99.082 64.2188 99.082Z" fill="white"/>
</svg>
