<svg width="50" height="50" viewBox="0 0 50 50" fill="none" xmlns="http://www.w3.org/2000/svg">
<g clip-path="url(#clip0)">
<path d="M25.0082 12.1626C17.9187 12.1626 12.1791 17.9084 12.1791 24.9918C12.1791 32.0813 17.9249 37.8209 25.0082 37.8209C32.0978 37.8209 37.8374 32.0751 37.8374 24.9918C37.8374 17.9022 32.0916 12.1626 25.0082 12.1626ZM25.0082 33.3188C20.4062 33.3188 16.6812 29.5918 16.6812 24.9918C16.6812 20.3918 20.4082 16.6647 25.0082 16.6647C29.6082 16.6647 33.3353 20.3918 33.3353 24.9918C33.3374 29.5918 29.6103 33.3188 25.0082 33.3188Z" fill="#2C7BF0"/>
<path d="M35.3083 0.158398C30.7083 -0.056185 19.3146 -0.0457683 14.7104 0.158398C10.6646 0.347982 7.09582 1.32506 4.21874 4.20215C-0.589598 9.01048 0.0249852 15.4896 0.0249852 24.9917C0.0249852 34.7167 -0.516681 41.0459 4.21874 45.7813C9.04582 50.6063 15.6187 49.9751 25.0083 49.9751C34.6417 49.9751 37.9666 49.9813 41.3729 48.6626C46.0041 46.8646 49.5 42.7251 49.8416 35.2896C50.0583 30.6876 50.0458 19.2959 49.8416 14.6917C49.4291 5.91465 44.7187 0.591732 35.3083 0.158398ZM42.5896 42.6001C39.4375 45.7521 35.0646 45.4709 24.9479 45.4709C14.5312 45.4709 10.3542 45.6251 7.30623 42.5688C3.79582 39.0751 4.43124 33.4646 4.43124 24.9584C4.43124 13.448 3.24999 5.1584 14.8021 4.56673C17.4562 4.47298 18.2375 4.44173 24.9187 4.44173L25.0125 4.50423C36.1146 4.50423 44.825 3.34173 45.3479 14.8917C45.4666 17.5271 45.4937 18.3188 45.4937 24.9896C45.4916 35.2855 45.6875 39.4876 42.5896 42.6001Z" fill="#2C7BF0"/>
<path d="M38.3458 14.6541C40.0015 14.6541 41.3437 13.3119 41.3437 11.6562C41.3437 10.0005 40.0015 8.65833 38.3458 8.65833C36.6901 8.65833 35.3479 10.0005 35.3479 11.6562C35.3479 13.3119 36.6901 14.6541 38.3458 14.6541Z" fill="#2C7BF0"/>
</g>
<defs>
<clipPath id="clip0">
<rect width="50" height="50" fill="white"/>
</clipPath>
</defs>
</svg>
