<svg width="131" height="70" viewBox="0 0 131 70" fill="none" xmlns="http://www.w3.org/2000/svg">
<path fill-rule="evenodd" clip-rule="evenodd" d="M61.7057 26.9802C61.2315 28.875 59.9395 31.1626 58.2059 32.8014C53.9864 36.796 49.1782 36.5741 44.6807 34.2012C38.7112 31.0431 35.1459 20.7663 38.5804 14.1428L40.4775 11.3773C41.5079 10.2335 41.7859 10.2506 42.6036 9.5507C43.8302 8.4923 41.835 10.2848 42.898 9.2605L43.176 8.97029C29.0293 8.40695 28.9803 30.6334 41.884 38.5202C47.4282 41.9002 54.2808 41.7466 59.8086 37.752C61.1988 36.7618 62.1964 35.7717 63.2431 34.5085C65.5 31.8283 66.5958 28.6361 67.0373 25.256C67.3317 23.0026 67.1191 21.7223 67.1845 19.6567C67.2172 18.5642 67.4953 17.2156 67.7242 16.2767C68.1822 14.3647 69.4742 12.0943 71.2077 10.4555C75.4436 6.46086 80.2518 6.68278 84.7493 9.05564C90.7187 12.2138 94.284 22.4905 90.8332 29.114L88.9524 31.8795C87.9221 33.0233 87.6277 33.0062 86.81 33.7061C85.5834 34.7645 87.5787 32.9721 86.5156 33.9793L86.2539 34.2866C100.401 34.8499 100.45 12.6235 87.5296 4.73669C82.0018 1.35663 75.1492 1.51027 69.605 5.48781C68.2149 6.495 67.2336 7.48511 66.1705 8.7313C64.2898 11.0017 62.9978 13.5624 62.638 16.3791C62.2455 19.5372 62.7688 24.2147 61.7057 26.9802Z" fill="#2C7BF0"/>
<path fill-rule="evenodd" clip-rule="evenodd" d="M80.399 0.946415C82.4761 0.707421 86.1231 2.00482 87.3661 2.82422C89.5085 4.1899 90.9641 5.06052 93.0738 7.56995C103.606 20.1171 97.8657 38.0929 85.289 35.6176C83.1139 35.1737 80.5789 33.6373 79.0416 32.101C78.6164 31.6912 78.1094 31.1791 77.7169 30.6841C77.4552 30.3768 77.3407 30.1719 77.0954 29.8817L76.2286 29.0965C75.8034 30.1378 75.8852 30.5133 75.2473 31.5888C74.724 32.4765 74.2661 33.0057 74.0371 34.1665C82.3779 45.0237 100.646 42.224 103.279 26.1944C104.653 17.8808 101.562 7.62117 93.9733 2.70473C92.0271 1.45854 91.7654 1.50976 89.9501 0.826918C87.0717 -0.248554 82.1817 -0.248554 80.7261 0.673279L80.399 0.946415Z" fill="#2C7BF0"/>
<path d="M10.6468 62.7946C9.91086 64.2627 8.48802 65.287 6.77079 65.287C4.36667 65.287 2.40412 63.2214 2.40412 60.6949C2.40412 58.2026 4.36667 56.154 6.77079 56.154C8.48802 56.154 9.92722 57.1442 10.6468 58.5952L12.7729 57.4685C11.6772 55.1981 9.38752 53.6275 6.77079 53.6275C3.02559 53.6275 0 56.8198 0 60.6949C0 64.6212 3.02559 67.7794 6.77079 67.7794C9.40387 67.7794 11.6608 66.2259 12.7729 63.9555L10.6468 62.7946ZM14.3593 67.3355H16.7798V56.5979H23.2398V67.3355H25.6276V54.0884H14.3593V67.3355ZM28.0154 67.3355H38.0243V64.8602H30.4195V61.8899H35.9146V59.4487H30.4195V56.5808H38.0243V54.0884H28.0154V67.3355ZM40.0687 67.3355H50.3066V69.3158H52.7107V64.8432H51.1571V54.0884H48.7529V64.8432H42.4891V54.0884H40.0687V67.3355ZM64.2571 62.7946C63.5211 64.2627 62.0983 65.287 60.381 65.287C57.9769 65.287 56.0144 63.2214 56.0144 60.6949C56.0144 58.2026 57.9769 56.154 60.381 56.154C62.0983 56.154 63.5375 57.1442 64.2571 58.5952L66.3831 57.4685C65.2874 55.1981 62.9978 53.6275 60.381 53.6275C56.6358 53.6275 53.6102 56.8198 53.6102 60.6949C53.6102 64.6212 56.6358 67.7794 60.381 67.7794C63.0141 67.7794 65.271 66.2259 66.3831 63.9555L64.2571 62.7946ZM67.9695 67.3355H77.9785V64.8602H70.3573V61.8899H75.8688V59.4487H70.3573V56.5808H77.9785V54.0884H67.9695V67.3355ZM79.9901 67.3355H82.3779V64.2798H85.6488C88.4618 64.2798 90.8332 62.0264 90.8332 59.1756C90.8332 56.3418 88.4454 54.0884 85.6488 54.0884H79.9901V67.3355ZM82.3779 61.8387V56.5296H85.567C87.1371 56.5296 88.4291 57.7416 88.4291 59.1756C88.4291 60.6266 87.2025 61.8387 85.6325 61.8387H82.3779ZM92.5014 67.3355H99.1577C101.218 67.3355 102.919 65.5772 102.919 63.4092C102.919 62.1801 102.363 61.1729 101.513 60.5583C102.183 59.9609 102.608 59.1073 102.608 58.0318C102.608 55.8638 100.924 54.0884 98.8469 54.0884H92.5014V67.3355ZM94.8891 64.8432V61.8557H99.125C99.8936 61.8557 100.515 62.5386 100.515 63.3751C100.515 64.1603 99.8936 64.8432 99.125 64.8432H94.8891ZM94.8891 59.517V56.5808H98.7979C99.5665 56.5808 100.204 57.2466 100.204 58.0831C100.204 58.8854 99.5665 59.517 98.7979 59.517H94.8891ZM104.882 67.3355H107.597L114.106 57.6904V67.3355H116.494V54.0884H113.795L107.286 63.7335V54.0884H104.882V67.3355ZM128.858 62.7946C128.122 64.2627 126.699 65.287 124.998 65.287C122.577 65.287 120.631 63.2214 120.631 60.6949C120.631 58.2026 122.577 56.154 124.998 56.154C126.699 56.154 128.154 57.1442 128.858 58.5952L131 57.4685C129.888 55.1981 127.615 53.6275 124.998 53.6275C121.253 53.6275 118.211 56.8198 118.211 60.6949C118.211 64.6212 121.253 67.7794 124.998 67.7794C127.631 67.7794 129.872 66.2259 131 63.9555L128.858 62.7946Z" fill="#2C7BF0"/>
<path fill-rule="evenodd" clip-rule="evenodd" d="M49.0146 42.3099C46.9376 42.5318 43.3069 41.2515 42.0476 40.4321C39.9215 39.0664 38.4496 38.1958 36.3562 35.6863C25.8239 23.1392 31.548 5.16344 44.141 7.63874C46.3161 8.06551 48.8347 9.61897 50.3884 11.1554C50.7973 11.5651 51.3043 12.0772 51.6968 12.5552C51.9584 12.8795 52.0893 13.0844 52.3182 13.3746L53.185 14.1598C53.6103 13.1185 53.5448 12.743 54.1827 11.6675C54.6897 10.7627 55.1476 10.2506 55.3929 9.08977C47.0521 -1.76737 28.784 1.03227 26.1346 17.0619C24.7608 25.3755 27.8518 35.6351 35.4567 40.5345C37.3865 41.7978 37.6482 41.7295 39.4799 42.4294C42.342 43.5049 47.232 43.4878 48.6875 42.583L49.0146 42.3099Z" fill="#2C7BF0"/>
<path fill-rule="evenodd" clip-rule="evenodd" d="M49.6852 34.286C54.1663 35.3103 62.3272 30.1548 60.61 19.9464L55.7854 22.0461C55.6546 23.6337 55.8672 24.2312 55.5401 25.7505C54.2154 31.9644 50.6501 33.0057 49.6852 34.286Z" fill="#2C7BF0"/>
<path fill-rule="evenodd" clip-rule="evenodd" d="M79.7285 8.96977C75.2474 7.94551 67.1028 13.1009 68.8037 23.3094L73.6446 21.2097C73.7591 19.6221 73.5465 19.0075 73.8736 17.5053C75.2147 11.2914 78.7636 10.2501 79.7285 8.96977Z" fill="#2C7BF0"/>
<path fill-rule="evenodd" clip-rule="evenodd" d="M56.4398 8.11611L61.1172 6.20416C57.3884 1.57791 49.9307 -1.49487 43.0618 0.929215C43.7323 1.20235 47.7392 1.42427 50.3232 3.02895C52.2857 4.24099 54.7389 5.65788 56.4398 8.11611Z" fill="#2C7BF0"/>
<path fill-rule="evenodd" clip-rule="evenodd" d="M72.9905 35.1225L68.2968 37.0515C72.0419 41.6778 79.4833 44.7506 86.3522 42.3265C85.6817 42.0533 81.6911 41.8314 79.0908 40.2267C77.1446 39.0147 74.6914 37.5978 72.9905 35.1225Z" fill="#2C7BF0"/>
<path fill-rule="evenodd" clip-rule="evenodd" d="M54.9186 14.1423C56.9629 13.2717 58.2876 13.2204 59.2035 11.5475L60.7408 8.01379C58.7946 8.88441 57.3227 8.96977 56.505 10.5232L54.984 13.9374C54.9513 13.9033 54.9349 14.074 54.9186 14.1423Z" fill="#2C7BF0"/>
<path fill-rule="evenodd" clip-rule="evenodd" d="M74.4949 29.1136C72.467 29.9842 71.1423 30.0355 70.2101 31.6913L68.6727 35.2421C70.6353 34.3715 72.0908 34.2861 72.9249 32.7327L74.4295 29.3185C74.4786 29.3526 74.4786 29.1819 74.4949 29.1136Z" fill="#2C7BF0"/>
</svg>
