<svg width="19" height="101" viewBox="0 0 19 101" fill="none" xmlns="http://www.w3.org/2000/svg">
<path d="M10 0C4.75569 0.00600625 0.0058125 4.58088 0 10V21C0 26.4216 4.75331 31 10 31C15.2467 31 19 26.4216 19 21V10C18.9942 4.58088 15.2443 0.00600625 10 0ZM11 5V8C11 8.57072 10.5523 9 10 9C9.44769 9 9 8.57072 9 8V5C9 4.42928 9.44769 4 10 4C10.5523 4 11 4.42928 11 5ZM1 10C1.00744 5.35478 4.5125 1.27506 9 1V3C8.11969 3.23489 8.00344 4.06051 8 5V8C8.00344 8.93949 8.11969 9.76511 9 10V12H1V10ZM18 21C17.9947 25.8487 14.6922 29.9946 10 30C5.30775 29.9946 1.00525 25.8487 1 21V13H18V21ZM18 12H10V10C10.8804 9.76511 11.9966 8.93949 12 8V5C11.9966 4.06051 10.8804 3.23489 10 3V1C14.4875 1.27506 17.9926 5.35478 18 10V12Z" fill="white"/>
<path d="M9 41V101" stroke="white"/>
</svg>
