<svg width="50" height="50" viewBox="0 0 50 50" fill="none" xmlns="http://www.w3.org/2000/svg">
<g clip-path="url(#clip0)">
<path d="M24.9981 43.1634C24.9939 43.1634 24.9893 43.1634 24.9848 43.1634C23.476 43.1531 10.1383 43.0314 6.35947 42.0094C3.71855 41.2995 1.63381 39.217 0.921987 36.5757C-0.0667843 32.8637 -0.00384167 25.7168 0.0030248 25.1461C-0.00346019 24.5781 -0.0671658 17.3721 0.918935 13.6295C0.92008 13.6261 0.920843 13.6223 0.921987 13.6189C1.6258 11.0077 3.75746 8.86078 6.35298 8.14896C6.35947 8.14705 6.36633 8.14552 6.37282 8.14362C10.1089 7.16171 23.473 7.04155 24.9848 7.03125H25.0118C26.5244 7.04155 39.8976 7.16324 43.6417 8.18672C46.2758 8.89473 48.359 10.9745 49.0727 13.6124C50.0985 17.3577 50.0035 24.5793 49.9932 25.1889C50.0004 25.7893 50.0603 32.8721 49.0773 36.6028C49.0765 36.6066 49.0754 36.6101 49.0746 36.6135C48.3624 39.2548 46.278 41.3373 43.6341 42.0479C43.6306 42.0491 43.6268 42.0498 43.6234 42.051C39.8877 43.0325 26.5232 43.1527 25.0118 43.1634C25.0073 43.1634 25.0027 43.1634 24.9981 43.1634ZM4.69473 14.6313C3.8265 17.9348 3.90852 25.0489 3.90928 25.1206V25.1721C3.88334 27.145 3.97451 32.8587 4.69511 35.5649C5.04454 36.8607 6.0726 37.8872 7.37647 38.2378C10.1646 38.992 21.0278 39.2293 24.9981 39.2571C28.9788 39.2293 39.8579 38.9985 42.6255 38.2744C43.9251 37.9227 44.9498 36.8996 45.3015 35.6022C46.0228 32.8564 46.1133 27.1706 46.0869 25.2102C46.0869 25.1896 46.0869 25.169 46.0873 25.1484C46.1232 23.1518 46.0526 17.3714 45.3049 14.6435C45.3042 14.6408 45.3034 14.6382 45.303 14.6355C44.9521 13.3339 43.9236 12.3074 42.6198 11.9568C39.8587 11.2019 28.978 10.9654 24.9981 10.9375C21.0201 10.9654 10.1517 11.1958 7.3757 11.919C6.09663 12.2738 5.0453 13.337 4.69473 14.6313ZM47.1886 36.1054H47.1898H47.1886ZM20.0195 33.0071V17.1871L33.6914 25.0973L20.0195 33.0071Z" fill="#2C7BF0"/>
</g>
<defs>
<clipPath id="clip0">
<rect width="50" height="50" fill="white"/>
</clipPath>
</defs>
</svg>
